<mxfile host="app.diagrams.net" agent="Mozilla/5.0 (Windows NT 10.0; Win64; x64) AppleWebKit/537.36 (KHTML, like Gecko) Chrome/129.0.0.0 Safari/537.36" version="24.7.17">
  <diagram name="Page-1" id="ASsiQjZMwKPkwnwuAcJK">
    <mxGraphModel dx="1434" dy="746" grid="1" gridSize="10" guides="1" tooltips="1" connect="1" arrows="1" fold="1" page="1" pageScale="1" pageWidth="827" pageHeight="1169" math="0" shadow="0">
      <root>
        <mxCell id="0" />
        <mxCell id="1" parent="0" />
        <mxCell id="fHK4DVxJc79cw4O2gN7t-2" value="" style="ellipse;html=1;shape=startState;" parent="1" vertex="1">
          <mxGeometry x="170" y="680" width="30" height="30" as="geometry" />
        </mxCell>
        <mxCell id="fHK4DVxJc79cw4O2gN7t-3" value="" style="edgeStyle=orthogonalEdgeStyle;html=1;verticalAlign=bottom;endArrow=open;endSize=8;rounded=0;" parent="1" source="fHK4DVxJc79cw4O2gN7t-2" edge="1">
          <mxGeometry relative="1" as="geometry">
            <mxPoint x="185" y="770" as="targetPoint" />
          </mxGeometry>
        </mxCell>
        <mxCell id="fHK4DVxJc79cw4O2gN7t-5" style="edgeStyle=orthogonalEdgeStyle;rounded=0;orthogonalLoop=1;jettySize=auto;html=1;" parent="1" source="fHK4DVxJc79cw4O2gN7t-4" edge="1">
          <mxGeometry relative="1" as="geometry">
            <mxPoint x="310" y="810" as="targetPoint" />
          </mxGeometry>
        </mxCell>
        <mxCell id="fHK4DVxJc79cw4O2gN7t-4" value="Red" style="ellipse;shape=umlEntity;whiteSpace=wrap;html=1;" parent="1" vertex="1">
          <mxGeometry x="145" y="770" width="80" height="80" as="geometry" />
        </mxCell>
        <mxCell id="fHK4DVxJc79cw4O2gN7t-13" style="edgeStyle=orthogonalEdgeStyle;rounded=0;orthogonalLoop=1;jettySize=auto;html=1;entryX=0;entryY=0.5;entryDx=0;entryDy=0;" parent="1" source="fHK4DVxJc79cw4O2gN7t-9" target="fHK4DVxJc79cw4O2gN7t-11" edge="1">
          <mxGeometry relative="1" as="geometry">
            <mxPoint x="459.9999999999957" y="810" as="targetPoint" />
          </mxGeometry>
        </mxCell>
        <mxCell id="fHK4DVxJc79cw4O2gN7t-9" value="YellowRed" style="ellipse;shape=umlEntity;whiteSpace=wrap;html=1;" parent="1" vertex="1">
          <mxGeometry x="310" y="770" width="80" height="80" as="geometry" />
        </mxCell>
        <mxCell id="fHK4DVxJc79cw4O2gN7t-17" style="edgeStyle=orthogonalEdgeStyle;rounded=0;orthogonalLoop=1;jettySize=auto;html=1;entryX=0;entryY=0.5;entryDx=0;entryDy=0;" parent="1" source="fHK4DVxJc79cw4O2gN7t-11" target="fHK4DVxJc79cw4O2gN7t-16" edge="1">
          <mxGeometry relative="1" as="geometry" />
        </mxCell>
        <mxCell id="fHK4DVxJc79cw4O2gN7t-11" value="Green" style="ellipse;shape=umlEntity;whiteSpace=wrap;html=1;" parent="1" vertex="1">
          <mxGeometry x="480" y="770" width="80" height="80" as="geometry" />
        </mxCell>
        <mxCell id="fHK4DVxJc79cw4O2gN7t-18" style="edgeStyle=orthogonalEdgeStyle;rounded=0;orthogonalLoop=1;jettySize=auto;html=1;entryX=0.5;entryY=1;entryDx=0;entryDy=0;" parent="1" source="fHK4DVxJc79cw4O2gN7t-16" target="fHK4DVxJc79cw4O2gN7t-4" edge="1">
          <mxGeometry relative="1" as="geometry">
            <Array as="points">
              <mxPoint x="690" y="920" />
              <mxPoint x="185" y="920" />
            </Array>
          </mxGeometry>
        </mxCell>
        <mxCell id="fHK4DVxJc79cw4O2gN7t-16" value="Yellow" style="ellipse;shape=umlEntity;whiteSpace=wrap;html=1;" parent="1" vertex="1">
          <mxGeometry x="650" y="770" width="80" height="80" as="geometry" />
        </mxCell>
        <mxCell id="fHK4DVxJc79cw4O2gN7t-19" value="CheckTime/&lt;br&gt;ChangeColour" style="text;html=1;align=center;verticalAlign=middle;resizable=0;points=[];autosize=1;strokeColor=none;fillColor=none;" parent="1" vertex="1">
          <mxGeometry x="215" y="775" width="100" height="40" as="geometry" />
        </mxCell>
        <mxCell id="fHK4DVxJc79cw4O2gN7t-20" value="CheckTime/&lt;br&gt;ChangeColour" style="text;html=1;align=center;verticalAlign=middle;resizable=0;points=[];autosize=1;strokeColor=none;fillColor=none;" parent="1" vertex="1">
          <mxGeometry x="380" y="775" width="100" height="40" as="geometry" />
        </mxCell>
        <mxCell id="fHK4DVxJc79cw4O2gN7t-21" value="CheckTime/&lt;br&gt;ChangeColour" style="text;html=1;align=center;verticalAlign=middle;resizable=0;points=[];autosize=1;strokeColor=none;fillColor=none;" parent="1" vertex="1">
          <mxGeometry x="550" y="775" width="100" height="40" as="geometry" />
        </mxCell>
        <mxCell id="fHK4DVxJc79cw4O2gN7t-22" value="CheckTime/&lt;br&gt;ChangeColour" style="text;html=1;align=center;verticalAlign=middle;resizable=0;points=[];autosize=1;strokeColor=none;fillColor=none;" parent="1" vertex="1">
          <mxGeometry x="380" y="880" width="100" height="40" as="geometry" />
        </mxCell>
      </root>
    </mxGraphModel>
  </diagram>
</mxfile>
